# Blender v3.5.0 OBJ File: 'Fish.blend1'
# www.blender.org
mtllib Fish.mtl
o 立方体
v 0.000000 0.000000 24.173714
v 0.000000 0.000000 -9.755896
v 0.000000 -5.115449 7.870300
v 0.000000 5.115449 7.870300
v 2.789201 0.000000 7.870300
v -2.789201 0.000000 7.930285
v 0.000000 -4.588200 -20.024006
v 0.000000 4.588200 -20.024006
v -2.970033 0.000000 -20.024006
v 2.970033 0.000000 -20.024006
vt 0.500000 0.125000
vt 0.625000 0.125000
vt 0.500000 0.250000
vt 0.500000 0.625000
vt 0.625000 0.625000
vt 0.500000 0.750000
vt 0.500000 0.000000
vt 0.625000 0.250000
vt 0.500000 0.250000
vt 0.625000 0.250000
vt 0.625000 0.500000
vt 0.500000 0.500000
vt 0.625000 0.500000
vt 0.625000 0.000000
vt 0.500000 0.000000
vt 0.375000 0.125000
vt 0.500000 0.500000
vt 0.375000 0.625000
vt 0.375000 0.750000
vt 0.375000 0.250000
vt 0.500000 0.500000
vt 0.500000 0.750000
vt 0.375000 0.500000
vt 0.375000 0.750000
vt 0.375000 0.000000
vn -0.8703 0.4729 -0.1373
vn 0.8682 0.4734 0.1485
vn 0.0000 0.0000 -1.0000
vn -0.8158 0.5281 0.2360
vn 0.8696 0.4742 -0.1376
vn -0.8674 0.4747 0.1490
vn -0.8674 -0.4747 0.1490
vn 0.8696 -0.4742 -0.1376
vn 0.8682 -0.4734 0.1485
vn -0.8703 -0.4729 -0.1373
vn 0.8158 0.5281 0.2360
vn 0.8158 -0.5281 0.2360
vn -0.8158 -0.5281 0.2360
usemtl None
s off
f 6/1/1 4/2/1 2/3/1
f 5/4/2 4/5/2 1/6/2
f 9/7/3 8/8/3 10/9/3
f 2/10/4 8/11/4 9/12/4
f 2/13/5 4/5/5 5/4/5
f 1/14/6 4/2/6 6/1/6
f 1/15/7 6/1/7 3/16/7
f 2/17/8 5/4/8 3/18/8
f 3/18/9 5/4/9 1/19/9
f 3/16/10 6/1/10 2/20/10
f 10/21/11 8/11/11 2/22/11
f 7/23/12 10/21/12 2/24/12
f 2/3/13 9/12/13 7/23/13
f 7/25/3 9/7/3 10/9/3
