# Blender v3.5.0 OBJ File: ''
# www.blender.org
mtllib EnemyDeathEffect.mtl
o 立方体
v -1.000000 -1.000000 1.000000
v -1.000000 1.000000 1.000000
v -1.000000 -1.000000 -1.000000
v -1.000000 1.000000 -1.000000
v 1.000000 -1.000000 1.000000
v 1.000000 1.000000 1.000000
v 1.000000 -1.000000 -1.000000
v 1.000000 1.000000 -1.000000
vt 0.625000 0.000000
vt 0.375000 0.250000
vt 0.375000 0.000000
vt 0.625000 0.250000
vt 0.375000 0.500000
vt 0.997954 0.411175
vt 0.588825 0.002046
vt 0.997954 0.002046
vt 0.824396 0.993863
vt 0.415267 0.584733
vt 0.824396 0.584733
vt 0.125000 0.750000
vt 0.125000 0.500000
vt 0.411175 0.584733
vt 0.002046 0.993863
vt 0.002046 0.584733
vt 0.291344 0.580642
vt 0.002046 0.291344
vt 0.291344 0.002046
vt 0.588825 0.411175
vt 0.415266 0.993863
vt 0.584733 0.580642
vt 0.295435 0.291344
vt 0.584733 0.002046
vt 0.411175 0.993863
vn -1.0000 0.0000 0.0000
vn 0.0000 0.0000 -1.0000
vn 1.0000 0.0000 0.0000
vn 0.0000 0.0000 1.0000
vn 0.0000 -1.0000 0.0000
vn 0.0000 1.0000 0.0000
usemtl マテリアル
s off
f 2/1/1 3/2/1 1/3/1
f 4/4/2 7/5/2 3/2/2
f 8/6/3 5/7/3 7/8/3
f 6/9/4 1/10/4 5/11/4
f 7/5/5 1/12/5 3/13/5
f 4/14/6 6/15/6 8/16/6
f 2/1/1 4/4/1 3/2/1
f 4/17/2 8/18/2 7/19/2
f 8/6/3 6/20/3 5/7/3
f 6/9/4 2/21/4 1/10/4
f 7/22/5 5/23/5 1/24/5
f 4/14/6 2/25/6 6/15/6
