# Blender 3.5.0
# www.blender.org
mtllib IceDebris.mtl
o Cube
v 1.706621 2.177160 -1.706621
v 1.447461 -1.676193 -1.822456
v 1.706621 2.177160 1.706621
v 1.366006 -1.934859 1.167868
v -1.706621 2.177160 -1.706621
v -1.278286 -1.795093 -1.540019
v -1.706621 2.177160 1.706621
v -1.315111 -1.756086 1.344805
v 2.403174 -0.035982 -3.356240
v -2.004834 0.470855 3.190716
v 2.635921 0.269414 2.356217
v -2.353310 0.000000 -2.676270
vn -0.0000 1.0000 -0.0000
vn 0.1792 0.3942 0.9014
vn -0.9775 0.2069 0.0415
vn -0.0657 -0.9978 0.0127
vn 0.9396 0.3377 -0.0563
vn -0.1119 0.5710 -0.8133
vn -0.0612 -0.5597 -0.8264
vn 0.8707 -0.4915 -0.0188
vn -0.8568 -0.5156 -0.0040
vn 0.0084 -0.6366 0.7712
vn -0.0000 0.6563 0.7545
vn -0.9586 0.2847 -0.0000
vn 0.0346 -0.9958 -0.0852
vn 0.8990 0.4379 -0.0000
vn -0.0000 0.4068 -0.9135
vn -0.1132 -0.6426 -0.7578
vn 0.8608 -0.5089 -0.0079
vn -0.9301 -0.3576 0.0839
vn 0.1282 -0.5268 0.8402
vt 0.625000 0.500000
vt 0.375000 0.500000
vt 0.625000 0.750000
vt 0.375000 0.750000
vt 0.875000 0.500000
vt 0.625000 0.250000
vt 0.375000 0.250000
vt 0.125000 0.500000
vt 0.875000 0.750000
vt 0.625000 1.000000
vt 0.625000 0.000000
vt 0.125000 0.750000
vt 0.375000 1.000000
vt 0.375000 0.000000
vt 0.500000 0.500000
vt 0.500000 0.000000
vt 0.500000 1.000000
vt 0.500000 0.750000
vt 0.500000 0.250000
s 0
usemtl Material
f 5/5/1 3/3/1 1/1/1
f 3/3/2 10/17/2 11/18/2
f 7/11/3 12/19/3 10/16/3
f 6/8/4 4/4/4 8/12/4
f 1/1/5 11/18/5 9/15/5
f 12/19/6 1/1/6 9/15/6
f 12/19/7 2/2/7 6/7/7
f 2/2/8 11/18/8 4/4/8
f 8/14/9 12/19/9 6/7/9
f 4/4/10 10/17/10 8/13/10
f 5/5/1 7/9/1 3/3/1
f 3/3/11 7/10/11 10/17/11
f 7/11/12 5/6/12 12/19/12
f 6/8/13 2/2/13 4/4/13
f 1/1/14 3/3/14 11/18/14
f 12/19/15 5/6/15 1/1/15
f 12/19/16 9/15/16 2/2/16
f 2/2/17 9/15/17 11/18/17
f 8/14/18 10/16/18 12/19/18
f 4/4/19 11/18/19 10/17/19
