# Blender 3.5.0
# www.blender.org
mtllib EnemyMark.mtl
o å¹³é¢
v -12.508994 0.113911 0.000000
v 12.508994 0.113913 0.000000
v 0.000001 -12.337689 0.000000
v 8.989075 3.807697 0.000000
v -6.254497 -6.111889 0.000000
v -8.989075 3.807696 0.000000
v 6.254497 -6.111888 0.000000
v 0.000000 -5.196992 0.000000
v -12.508997 9.328346 0.000000
v 12.508994 9.328348 0.000000
v 0.000000 -3.123255 0.000000
v 8.989075 13.022132 0.000000
v -6.254497 3.102545 0.000000
v -8.989077 13.022129 0.000000
v 6.254497 3.102547 0.000000
v -0.000000 4.017443 0.000000
vn -0.0000 -0.0000 -1.0000
vt 0.000000 1.000000
vt 1.000000 0.000000
vt 0.000000 0.000000
vt 1.000000 0.500000
vt 0.000000 0.500000
vt 0.500000 1.000000
vt 0.500000 0.000000
vt 0.500000 0.500000
vt 0.000000 1.000000
vt 1.000000 0.000000
vt 0.000000 0.000000
vt 1.000000 0.500000
vt 0.000000 0.500000
vt 0.500000 1.000000
vt 0.500000 0.000000
vt 0.500000 0.500000
s 0
usemtl Material
f 7/7/1 4/4/1 2/2/1
f 3/3/1 8/8/1 7/7/1
f 5/5/1 6/6/1 8/8/1
f 15/15/1 12/12/1 10/10/1
f 11/11/1 16/16/1 15/15/1
f 13/13/1 14/14/1 16/16/1
f 7/7/1 8/8/1 4/4/1
f 3/3/1 5/5/1 8/8/1
f 5/5/1 1/1/1 6/6/1
f 15/15/1 16/16/1 12/12/1
f 11/11/1 13/13/1 16/16/1
f 13/13/1 9/9/1 14/14/1
